<?xml version="1.0" encoding="UTF-8"?>
<svg id="Layer_2" data-name="Layer 2" xmlns="http://www.w3.org/2000/svg" viewBox="0 0 437.14 437.14">
  <defs>
    <style>
      .cls-1 {
        fill: #fff;
      }
    </style>
  </defs>
  <g id="Layer_2-2" data-name="Layer 2">
    <g>
      <path class="cls-1" d="M278.47,97.19c-131.3-5.93-150.59,1.37-165.51,16.26-12.06,12.06-15.52,27.68-16.3,44.77-.79,17.45-3.73,125.29,5.13,147.99,5.12,13.18,15.08,23.09,28.33,28.24,5.27,2.04,13.16,4.47,27.72,5.12,132.09,6.06,163.17,1.25,176.68-33.36,2.04-5.26,4.48-13.13,5.13-27.65,6.03-130.8-1.37-150.23-16.3-165.12-12.09-12.03-27.75-15.48-44.88-16.26ZM218.15,294.85c-42.33,0-76.64-34.23-76.64-76.46s34.31-76.44,76.64-76.44,76.64,34.21,76.64,76.44-34.31,76.46-76.64,76.46ZM297.83,156.78c-9.9,0-17.91-8.01-17.91-17.87s8.02-17.86,17.91-17.86,17.93,8.01,17.93,17.86-8.03,17.87-17.93,17.87Z"/>
      <path class="cls-1" d="M218.57,0C97.86,0,0,97.86,0,218.57s97.86,218.57,218.57,218.57,218.57-97.86,218.57-218.57S339.28,0,218.57,0ZM366.5,279.77c-.7,15.86-3.24,26.68-6.93,36.15-20.78,53.2-70.05,56.47-202.96,50.46-15.9-.73-26.73-3.23-36.22-6.92-20.34-7.87-35.81-23.38-43.66-43.54-11.64-29.88-7.63-143.83-6.94-158.91,1.1-24.16,7-45.41,24.15-62.52,17.09-17.01,38.25-22.98,62.67-24.09,145.75-6.71,167.36,5.76,185.74,24.09,23.16,23.14,30.22,52.02,24.15,185.27Z"/>
      <path class="cls-1" d="M218.15,168.77c-27.48,0-49.75,22.23-49.75,49.62s22.27,49.64,49.75,49.64,49.75-22.23,49.75-49.64-22.27-49.62-49.75-49.62Z"/>
    </g>
  </g>
</svg>