<?xml version="1.0" encoding="UTF-8"?>
<svg id="Layer_2" data-name="Layer 2" xmlns="http://www.w3.org/2000/svg" viewBox="0 0 454.65 252.74">
  <defs>
    <style>
      .cls-1 {
        fill: #fff;
      }

      .cls-2 {
        fill: none;
      }
    </style>
  </defs>
  <g id="Layer_1-2" data-name="Layer 1">
    <path class="cls-1" d="M454.65,126.37l-3.67-3.58c-12.24-11.98-16.58-30.2-11.05-46.42,6.66-19.52,2.49-40.4-11.15-55.84-13.64-15.44-33.8-22.14-53.95-17.89l-28.83,6.06c-39.53,8.32-80.46,5.35-118.38-8.6l-.31-.11-.32.11c-37.92,13.95-78.85,16.92-118.38,8.6l-28.83-6.06C59.66-1.6,39.49,5.09,25.86,20.55c-13.64,15.45-17.81,36.33-11.15,55.84,5.54,16.22,1.2,34.44-11.05,46.41l-3.67,3.58,3.67,3.58c12.24,11.97,16.58,30.2,11.05,46.42-6.66,19.52-2.49,40.4,11.15,55.84,13.64,15.44,33.81,22.12,53.95,17.89l28.83-6.07c14.63-3.08,29.46-4.61,44.27-4.61,25.17,0,50.23,4.42,74.11,13.21l.31.11.31-.11c37.92-13.95,78.85-16.92,118.38-8.6l28.83,6.07c20.14,4.24,40.31-2.45,53.95-17.89,13.64-15.45,17.8-36.33,11.15-55.84-5.53-16.22-1.2-34.44,11.05-46.42l3.67-3.58ZM439.23,126.96c-11.92,14.73-15.54,34.99-9.43,52.89,5.39,15.82,2.02,32.73-9.03,45.24-11.06,12.52-27.41,17.94-43.72,14.5l-28.83-6.07c-40.15-8.44-81.84-5.79-120.58,7.71l-.31.1-.31-.1c-23.91-8.33-48.84-12.56-74.11-12.56-15.57,0-31.21,1.63-46.47,4.84l-28.83,6.07c-16.32,3.44-32.67-1.98-43.72-14.5-11.05-12.52-14.43-29.44-9.03-45.24,6.1-17.9,2.49-38.15-9.43-52.89l-.48-.59.48-.59c11.92-14.73,15.54-34.99,9.43-52.89-5.39-15.82-2.02-32.73,9.03-45.24,11.06-12.52,27.4-17.94,43.72-14.5l28.83,6.07c40.15,8.45,81.84,5.79,120.58-7.71l.31-.1.31.1c38.73,13.5,80.44,16.17,120.58,7.71l28.83-6.07c16.33-3.44,32.67,1.98,43.72,14.5,11.05,12.52,14.43,29.44,9.03,45.24-6.11,17.9-2.49,38.16,9.43,52.89l.48.59-.48.59Z"/>
    <rect class="cls-2" x="216.82" y="138.53" width="21.94" height="15.84"/>
    <rect class="cls-2" x="216.76" y="138.53" width="22.12" height="15.56" rx="5" ry="5"/>
    <path d="M134.96,78.65c.05.06.09.1.13.13v.04s.04-.01.04-.04c-.06-.03-.11-.07-.17-.13Z"/>
    <g>
      <path class="cls-1" d="M237.65,89.01c.26.08.48,0,.65-.25.17-.34.26-.72.29-1.12,0-.32-.12-.53-.38-.65-.27-.08-.5-.03-.71.17-.07.12-.14.27-.19.42-.04.16-.08.3-.1.44v.4c.03.14.07.27.12.4.05.11.16.18.31.21Z"/>
      <path class="cls-1" d="M224.36,94.15c-.11-.05-.23-.08-.35-.08-.24.04-.46.11-.67.21-2.42,1.21-4.37,2.93-5.85,5.17-.28.52-.24.74.1.69.36-.05.9-.27,1.6-.65.72-.39,1.46-.83,2.23-1.33.78-.51,1.44-.94,1.98-1.29.5-.3.79-.47.88-.5.25-.18.4-.46.46-.85.07-.39.03-.76-.12-1.12-.06-.11-.14-.19-.25-.23Z"/>
    </g>
    <g>
      <g>
        <path class="cls-1" d="M128.62,173.55c.5-.17.95-.41,1.35-.73.4-.32.72-.71.96-1.17.25-.46.38-.97.38-1.54,0-.62-.14-1.14-.4-1.54-.27-.42-.62-.74-1.08-.98-.45-.25-.95-.42-1.52-.52-.57-.11-1.16-.17-1.75-.17-.2,0-.45.01-.77.02-.31,0-.64.03-.98.08-.33.04-.66.12-.96.23v6.56h3.29c.5,0,.99-.08,1.48-.25Z"/>
        <path class="cls-1" d="M130.68,174.75c-.66-.42-1.56-.62-2.71-.62h-4.12v9.06c.3.1.68.18,1.12.23.46.04.93.07,1.42.08.5.02.94.02,1.33.02,1.04,0,1.92-.21,2.62-.65.72-.43,1.26-1,1.62-1.71.38-.71.56-1.48.56-2.33s-.15-1.67-.44-2.38c-.28-.72-.75-1.29-1.42-1.71Z"/>
      </g>
      <g>
        <path class="cls-1" d="M143.1,175.65c0-.57-.14-1.07-.4-1.5-.25-.44-.59-.8-1.02-1.06-.42-.26-.89-.4-1.4-.4-.61,0-1.19.18-1.73.54-.54.36-.99.93-1.33,1.71-.33.77-.52,1.77-.56,3.02h4.33c.73,0,1.27-.19,1.6-.58.33-.4.5-.98.5-1.73Z"/>
        <path class="cls-1" d="M163.44,179.4c.32-.61.48-1.36.48-2.25s-.16-1.65-.48-2.25c-.32-.61-.76-1.07-1.31-1.38-.54-.32-1.17-.48-1.88-.48s-1.34.16-1.9.48c-.54.31-.97.77-1.29,1.38-.32.6-.48,1.35-.48,2.25s.16,1.64.48,2.25c.32.61.75,1.08,1.29,1.4.55.31,1.19.46,1.9.46s1.33-.15,1.88-.46c.55-.32.99-.78,1.31-1.4Z"/>
        <path class="cls-1" d="M184.2,178.92c-.38.25-.66.56-.83.94-.17.36-.25.72-.25,1.08,0,.47.11.93.33,1.38.23.43.57.79,1,1.06.44.27.97.39,1.58.35.79-.05,1.46-.34,2.02-.88.57-.53.98-1.21,1.25-2.06v-2.27h-3.62c-.6,0-1.09.14-1.48.4Z"/>
        <path class="cls-1" d="M201.11,179.4c.32-.61.48-1.36.48-2.25s-.16-1.65-.48-2.25c-.32-.61-.76-1.07-1.31-1.38-.54-.32-1.17-.48-1.88-.48s-1.34.16-1.9.48c-.54.31-.97.77-1.29,1.38-.32.6-.48,1.35-.48,2.25s.16,1.64.48,2.25c.32.61.75,1.08,1.29,1.4.55.31,1.19.46,1.9.46s1.33-.15,1.88-.46c.55-.32.99-.78,1.31-1.4Z"/>
        <path class="cls-1" d="M212.31,175.65c0-.57-.14-1.07-.4-1.5-.25-.44-.59-.8-1.02-1.06-.42-.26-.89-.4-1.4-.4-.61,0-1.19.18-1.73.54-.54.36-.99.93-1.33,1.71-.33.77-.52,1.77-.56,3.02h4.33c.73,0,1.27-.19,1.6-.58.33-.4.5-.98.5-1.73Z"/>
      </g>
      <path class="cls-1" d="M258.93,178.92c-.38.25-.66.56-.83.94-.17.36-.25.72-.25,1.08,0,.47.11.93.33,1.38.23.43.57.79,1,1.06.44.27.97.39,1.58.35.79-.05,1.46-.34,2.02-.88.57-.53.98-1.21,1.25-2.06v-2.27h-3.62c-.6,0-1.09.14-1.48.4Z"/>
      <path class="cls-1" d="M280.98,175.65c0-.57-.14-1.07-.4-1.5-.25-.44-.59-.8-1.02-1.06-.42-.26-.89-.4-1.4-.4-.61,0-1.19.18-1.73.54-.54.36-.99.93-1.33,1.71-.33.77-.52,1.77-.56,3.02h4.33c.73,0,1.27-.19,1.6-.58.33-.4.5-.98.5-1.73Z"/>
      <path class="cls-1" d="M318.44,179.4c.32-.61.48-1.36.48-2.25s-.16-1.65-.48-2.25c-.32-.61-.76-1.07-1.31-1.38-.54-.32-1.17-.48-1.88-.48s-1.34.16-1.9.48c-.54.31-.97.77-1.29,1.38-.32.6-.48,1.35-.48,2.25s.16,1.64.48,2.25c.32.61.75,1.08,1.29,1.4.55.31,1.19.46,1.9.46s1.33-.15,1.88-.46c.55-.32.99-.78,1.31-1.4Z"/>
    </g>
    <path class="cls-1" d="M437.32,126.37c-11.94-15.17-15.51-35.81-9.28-54.07,5.18-15.17,1.94-31.4-8.67-43.4-10.6-12.01-26.29-17.21-41.94-13.91l-28.83,6.07c-40.38,8.49-82.31,5.84-121.28-7.67-38.97,13.52-80.9,16.16-121.28,7.67l-28.83-6.07c-15.66-3.3-31.34,1.9-41.95,13.91-10.6,12.01-13.84,28.23-8.67,43.4,6.23,18.26,2.68,38.9-9.28,54.07,11.94,15.17,15.51,35.81,9.28,54.07-5.18,15.17-1.94,31.39,8.67,43.4,10.6,12.01,26.29,17.21,41.94,13.91l28.83-6.07c15.4-3.23,31.16-4.88,46.86-4.88,25.38,0,50.4,4.22,74.42,12.55,38.97-13.52,80.9-16.16,121.28-7.67l28.83,6.07c15.66,3.3,31.34-1.9,41.94-13.91,10.6-12.01,13.84-28.23,8.67-43.4-6.22-18.26-2.67-38.9,9.29-54.07ZM259.2,74.7c.12-.17.28-.31.48-.44.03-.03.07-.05.15-.06.93-.55,1.9-1.09,2.9-1.6,3.22-1.62,6.5-3.12,9.83-4.5,3.33-1.38,6.7-2.67,10.1-3.88,13.73-4.9,27.73-8.78,42-11.65,3.44-.69,6.88-1.32,10.31-1.9,3.44-.57,6.91-1,10.4-1.29,1-.05,2.01-.11,3.04-.17.46-.03.93-.05,1.42-.08,2.15,0,4.3.16,6.46.46.9.12,1.77.41,2.6.83.48.28.79.66.92,1.15.14.47.06.95-.23,1.42-.43.7-.96,1.33-1.58,1.9-1.27,1.18-2.66,2.24-4.17,3.19-7.67,5.02-15.93,8.83-24.79,11.44-.41.11-.81.24-1.21.38-.6.2-1.21.39-1.83.56-.17.06-.33.04-.48-.06-.14-.11-.23-.26-.27-.46,0-.08.03-.19.1-.31.07-.12.15-.21.25-.25.73-.3,1.51-.59,2.33-.85,8.88-2.94,17.19-7.04,24.96-12.29.94-.69,1.86-1.41,2.75-2.15.11-.11.24-.21.4-.29.44-.38.77-.85.98-1.44.11-.33,0-.61-.31-.85-.35-.22-.74-.35-1.17-.4-.07,0-.16,0-.25-.02-1.7-.29-3.4-.44-5.1-.44s-3.39.07-5.06.21c-3.85.38-7.68.9-11.48,1.56-3.81.66-7.6,1.39-11.4,2.19-11.22,2.38-22.27,5.39-33.12,9.02-3.88,1.29-7.71,2.67-11.5,4.12-3.79,1.46-7.54,3.06-11.23,4.81-1.02.49-2.02.97-3.02,1.46-.53.29-1.08.58-1.67.85-.08.03-.16.08-.21.15-.38.2-.77.35-1.17.46-.2.08-.41.12-.62.1-.21-.01-.38-.1-.5-.27-.11-.23-.11-.44,0-.6ZM324.98,99.72c2.18-.53,4.47-2.1,6.88-4.73,1.04-.67,1.31-.36.81.9-1.75,2.06-3.47,3.58-5.15,4.56-1.67.97-3.45,1.29-5.35.96-1.54-.27-2.34-1.17-2.41-2.68-.2.16-.41.33-.62.47-.04,0-.06.01-.06.02-.33.24-.7.45-1.08.62-3.11,1.11-4.7.45-4.75-1.98-1.27,1.1-2.11,1.77-2.54,2-1.03.61-2.15.89-3.35.83-.88-.05-1.47-.32-1.79-.81-.32-.48-.29-1.15.08-1.98.57-1.32,1.39-2.49,2.44-3.52,1.23-1.15,2.61-2.07,4.12-2.75.8-.4,1.65-.56,2.54-.48.89.06,1.42.56,1.6,1.5.07.29-.01.55-.23.77-.28.27-.6.32-.98.17h-.12s-.08-.03-.1-.06c-.38-.53-.76-.75-1.15-.67-.38.08-.78.26-1.21.52-2,1.18-3.49,2.81-4.48,4.9-.06.1-.09.2-.1.31,0,.11.03.2.1.27.23.07.49.05.77-.06.29-.11.58-.27.88-.48.29-.22.53-.4.73-.54.03-.04.04-.06.04-.06.94-.79,1.88-1.6,2.79-2.44.4-.43.9-.67,1.5-.73.86,0,1.21.39,1.06,1.17-.07.28-.16.56-.25.85-.33,1.24-.35,1.97-.04,2.19.32.21.8.21,1.44,0,.65-.22,1.3-.63,1.94-1.23.45-.44.84-.84,1.2-1.22.19-.69.39-1.37.64-2.03,1-2.48,2.01-4.96,3.04-7.42.34-.89.71-1.78,1.08-2.67.08-.19.17-.4.25-.6.14-.32.28-.65.44-.98.21-.58-.02-.88-.69-.9h-1.69c-.2.02-.4.04-.6.06-.33.03-.67.04-1,.04s-.65-.08-.94-.25c-.07-.03-.14-.07-.19-.15-.04-.07-.06-.15-.06-.25.03-.05.07-.11.12-.19.05-.07.13-.11.23-.15.29-.11.59-.19.9-.25.8-.04,1.6-.07,2.4-.1h.83c.51,0,.9-.01,1.15-.04.26-.04.47-.18.62-.42.15-.23.33-.59.54-1.08.12-.25.27-.53.44-.85.43-.92.86-1.84,1.29-2.79.19-.43.4-.84.6-1.25.17-.4.43-.71.79-.94.36-.17.67-.15.92.04.08.06.15.15.19.27.05.11.08.21.08.29,0,.52-.14,1.02-.4,1.5-.06.11-.12.24-.19.38-.17.47-.35.95-.54,1.44-.38.88-.73,1.78-1.06,2.71-.1.17-.1.32-.02.46.08.12.21.19.38.19.93.03,1.84.04,2.73.04h1.35c1.44.03,2.02.23,1.73.6-.2.22-.41.35-.65.38-.22.03-.45.03-.69,0h-.42c-1.46.08-2.91.14-4.35.17-.66,0-1.09.3-1.31.9-.24.57-.47,1.15-.69,1.73-.33.75-.64,1.49-.92,2.21-.29.67-.58,1.35-.85,2.04-.75,1.75-1.47,3.5-2.17,5.25-.43,1.16-.77,2.33-1,3.52-.56,2.17.28,3,2.52,2.5ZM278.28,114.65c.12-.03.26-.1.4-.23.14-.12.27-.27.4-.42.12-.14.21-.24.25-.29.17-.43.34-.88.54-1.33.64-1.47,1.27-2.94,1.9-4.4.19-.42.38-.84.56-1.27,1.34-3.18,2.68-6.36,4-9.54.05-.11.14-.28.25-.52.23-.46.48-.99.73-1.6.26-.61.43-1.16.5-1.65.08-.5-.04-.76-.38-.77h-4.42c-1.27,0-2.53-.02-3.79-.06-.33-.03-.65-.11-.94-.25-.02-.03-.04-.07-.06-.15-.02-.08-.04-.17-.06-.25v-.08s.01-.05.04-.08c.04-.03.07-.05.08-.08.18-.12.35-.2.52-.23.17-.03.34-.04.52-.04h.17c.71-.01,1.42-.03,2.15-.06,1.86-.12,3.72-.2,5.58-.23.64,0,1.13-.13,1.48-.4.36-.28.64-.7.83-1.27.93-2.39,1.86-4.76,2.79-7.12,1.01-2.53,2.01-5.05,2.98-7.58.73-1.94,1.44-3.89,2.1-5.83.36-1.04.73-2.08,1.12-3.12,0-.04.01-.07.04-.1.14-.46.32-.88.56-1.25.14-.19.3-.3.5-.31.21-.01.42.01.65.06.17.08.3.2.4.33.11.12.15.27.12.44-.08.66-.21,1.3-.38,1.94-.96,3.12-2.04,6.2-3.23,9.21-.07.07-.12.16-.15.25-1.07,2.83-2.18,5.66-3.33,8.46-.52,1.28-1.04,2.56-1.56,3.85v.04c-.14.38-.29.77-.44,1.17-.14.38-.15.65-.02.81.14.16.42.23.85.23.57,0,1.14-.03,1.71-.1h.79c.05,0,.09,0,.1-.02,3.3-.12,6.59-.24,9.85-.35.26-.03.52-.03.77,0,.19.03.38.1.56.21.18.1.31.2.4.31.08.11.09.22.02.33-.14.18-.3.29-.48.31-.18.03-.35.04-.52.04h-.1c-3.06,0-6.14.14-9.25.42-1.62.16-3.27.27-4.94.35-.54.03-.91.32-1.1.88-.17.42-.35.84-.56,1.27-.11.25-.21.51-.29.77-.42.93-.81,1.83-1.17,2.71-3.16,7.68-6.43,15.3-9.83,22.85-.99,2.09-2.02,4.16-3.1,6.19,0,.03-.02.05-.04.08-.35.67-.78,1.3-1.29,1.9-.46.54-1.06.73-1.79.56-.21-.06-.39-.16-.54-.31-.14-.14-.21-.32-.21-.54.04-.5.13-.99.27-1.46.11-.35.22-.71.33-1.08.57-1.86,1.17-3.72,1.81-5.58,2.88-8.22,6.21-16.24,10-24.06.36-.73.78-1.46,1.25-2.19.12-.17.29-.26.5-.29.22-.04.43-.03.62.04.34.1.47.36.38.79-.08.43-.27.93-.54,1.5-.27.56-.52,1.05-.77,1.48-.21.35-.35.6-.44.77-3.93,8.46-6.12,13.39-6.58,14.79-.17.48-.25.81-.25.98s.05.23.17.21ZM235.32,87.8c.26-1.36,1.01-2.03,2.25-2.02.08.03.18.04.29.04.05.03.1.04.15.04v-.04c.14.03.28.04.42.04.32,0,.63.04.94.1.92.25,1.29.92,1.12,2-.29,1.7-1.18,2.47-2.67,2.33-.46,0-.91-.07-1.33-.21-.95-.4-1.33-1.17-1.17-2.29ZM194.67,80.49h.83c.51,0,.9-.01,1.15-.04.26-.04.47-.18.62-.42.15-.23.33-.59.54-1.08.12-.25.27-.53.44-.85.43-.92.86-1.84,1.29-2.79.19-.43.4-.84.6-1.25.17-.4.43-.71.79-.94.36-.17.67-.15.92.04.08.06.15.15.19.27.05.11.08.21.08.29,0,.52-.14,1.02-.4,1.5-.06.11-.12.24-.19.38-.17.47-.35.95-.54,1.44-.38.88-.73,1.78-1.06,2.71-.1.17-.1.32-.02.46.08.12.21.19.38.19.93.03,1.84.04,2.73.04h1.35c1.44.03,2.02.23,1.73.6-.2.22-.41.35-.65.38-.22.03-.45.03-.69,0h-.42c-1.46.08-2.91.14-4.35.17-.66,0-1.09.3-1.31.9-.24.57-.47,1.15-.69,1.73-.33.75-.64,1.49-.92,2.21-.29.67-.58,1.35-.85,2.04-.75,1.75-1.47,3.5-2.17,5.25-.43,1.16-.77,2.33-1,3.52-.56,2.17.28,3,2.52,2.5,2.18-.53,4.47-2.1,6.88-4.73,1.04-.67,1.31-.36.81.9-1.75,2.06-3.47,3.58-5.15,4.56-1.67.97-3.45,1.29-5.35.96-1.54-.27-2.34-1.17-2.41-2.68-.2.16-.41.33-.62.47-.04,0-.06.01-.06.02-.33.24-.7.45-1.08.62-3.11,1.11-4.7.45-4.75-1.98-1.27,1.1-2.11,1.77-2.54,2-1.03.61-2.15.89-3.35.83-.88-.05-1.47-.32-1.79-.81-.32-.48-.29-1.15.08-1.98.57-1.32,1.39-2.49,2.44-3.52,1.23-1.15,2.61-2.07,4.12-2.75.8-.4,1.65-.56,2.54-.48.89.06,1.42.56,1.6,1.5.07.29-.01.55-.23.77-.28.27-.6.32-.98.17h-.12s-.08-.03-.1-.06c-.38-.53-.76-.75-1.15-.67-.38.08-.78.26-1.21.52-2,1.18-3.49,2.81-4.48,4.9-.06.1-.09.2-.1.31,0,.11.03.2.1.27.23.07.49.05.77-.06.29-.11.58-.27.88-.48.29-.22.53-.4.73-.54.03-.04.04-.06.04-.06.94-.79,1.88-1.6,2.79-2.44.4-.43.9-.67,1.5-.73.86,0,1.21.39,1.06,1.17-.07.28-.16.56-.25.85-.33,1.24-.35,1.97-.04,2.19.32.21.8.21,1.44,0,.65-.22,1.3-.63,1.94-1.23.45-.44.84-.84,1.2-1.22.19-.69.39-1.37.64-2.03,1-2.48,2.01-4.96,3.04-7.42.34-.89.71-1.78,1.08-2.67.08-.19.17-.4.25-.6.14-.32.28-.65.44-.98.21-.58-.02-.88-.69-.9h-1.69c-.2.02-.4.04-.6.06-.33.03-.67.04-1,.04s-.65-.08-.94-.25c-.07-.03-.14-.07-.19-.15-.04-.07-.06-.15-.06-.25.03-.05.07-.11.12-.19.05-.07.13-.11.23-.15.29-.11.59-.19.9-.25.8-.04,1.6-.07,2.4-.1ZM75.96,83.55c-.48,1.11-.77,2.33-.85,3.65-.03.27-.16.46-.4.58-.23.12-.49.17-.77.12-.46-.15-.74-.51-.85-1.08-.08-.75-.03-1.44.17-2.06.43-1.58,1-3.07,1.71-4.48,1.32-2.46,3.32-4.96,6-7.52,2.68-2.57,5.81-5.03,9.38-7.38,3.57-2.36,7.3-4.46,11.19-6.29,3.88-1.84,7.67-3.28,11.38-4.29,3.71-1.03,7.05-1.48,10.02-1.38,2.98.1,5.33.91,7.04,2.44,1.72,1.53,2.56,3.94,2.52,7.23-.1,2.12-.43,4.15-1,6.06-.83,2.81-1.8,5.52-2.9,8.15-1.08,2.62-2.24,5.2-3.46,7.71-.38.78-.46,1.16-.25,1.15.22-.03.55-.32.98-.9,1.54-2.05,3.09-4.08,4.65-6.08,1.05-1.34,2.13-2.67,3.23-3.96.14-.18.28-.35.42-.52.62-.76,1.38-1.28,2.27-1.54.67-.14,1.22.02,1.67.46.46.43.61,1.09.48,1.98-.03.1-.06.19-.08.27-.24,1.16-.51,2.27-.81,3.35-.83,2.64-1.7,5.26-2.58,7.85-.43,1.35-.86,2.71-1.29,4.08-.08.2-.21.56-.38,1.08-.18.46-.35.91-.5,1.35-.16.43-.28.77-.38,1,.12-.08,1.19-1.27,3.19-3.56,2.72-3.12,5.94-6.78,9.67-10.98,3.72-4.19,6.65-7.4,8.77-9.6,3.92-3.94,8.05-7.53,12.4-10.77,4.34-3.23,8.84-6.17,13.5-8.79,1.15-.59,2.33-1.14,3.54-1.62.26-.08.51-.19.75-.31,1.15-.44,2.38-.61,3.67-.5,2.47.24,3.6,1.8,3.4,4.69-.14,1.79-.54,3.48-1.19,5.06-.1.24-.19.47-.27.71-.92,2.36-1.91,4.69-2.96,6.98-5.45,11.32-11.29,22.27-17.54,32.83-2.03,3.42-4.1,6.77-6.23,10.06s-4.26,6.57-6.4,9.83c-.52.78-1.03,1.55-1.54,2.31-.03.07-.06.11-.08.15-.12.23-.27.43-.42.58-.16.15-.36.23-.62.23-.11,0-.24-.03-.38-.08-.12-.06-.23-.14-.31-.23-.06-.08-.1-.22-.12-.4-.03-.17-.02-.3.04-.4.34-.77.73-1.49,1.17-2.17.96-1.57,1.93-3.14,2.92-4.71,1.83-2.93,3.63-5.87,5.4-8.81,3.93-6.57,7.69-13.27,11.27-20.1,3.58-6.83,7.08-13.74,10.5-20.73,1.36-2.69,2.48-5.57,3.38-8.65.18-.53.32-1.07.42-1.65.09-.58.15-1.18.15-1.79-.1-1.32-.66-1.89-1.69-1.71-.91.18-1.76.47-2.56.85-1.92.92-3.81,1.94-5.67,3.06-10,6.07-19.11,13.6-27.33,22.6-.11.14-.24.28-.4.42-2.83,3.08-5.65,6.2-8.44,9.33-2.79,3.14-5.51,6.37-8.15,9.69-.54.7-1.11,1.34-1.71,1.94-.64.67-1.41.93-2.29.79-.38-.05-.69-.24-.94-.56-.24-.32-.33-.69-.27-1.12.18-1.17.44-2.3.79-3.4,1.05-3.46,2.17-6.88,3.35-10.25.17-.53.32-1.03.46-1.5.32-1.26.76-2.43,1.33-3.5,0-.03-.02-.04-.04-.04-.14-.08-.29-.15-.44-.19-.14-.04-.28.01-.42.15-.52.57-1.02,1.17-1.5,1.79-3.96,5.38-7.89,10.79-11.77,16.25-3.88,5.45-7.66,10.98-11.35,16.62-.32.55-.68,1-1.06,1.33-.38.34-.89.46-1.52.35-.29-.08-.52-.27-.67-.54-.16-.27-.18-.53-.08-.79.33-.77.7-1.49,1.1-2.19,1.14-1.97,2.27-3.95,3.4-5.94,2.25-3.92,4.48-7.85,6.71-11.81,3.43-6.07,6.49-12.46,9.19-19.17,1.05-2.58,1.92-5.29,2.58-8.12.36-1.51.51-3.09.46-4.73-.17-2.62-1.04-4.5-2.62-5.62-1.57-1.14-3.64-1.68-6.21-1.62-2.56.06-5.4.58-8.52,1.58-3.12.99-6.33,2.29-9.6,3.92-3.29,1.62-6.46,3.43-9.5,5.4-3.04,1.96-5.75,3.95-8.12,5.98-2.38,2.02-4.23,3.91-5.56,5.67-1.39,1.96-2.57,4.11-3.56,6.46ZM79.11,146.37l133.46-1.44v.87l-52.84.57,52.84.57v.86l-133.46-1.43ZM133.72,179.96c-.07.45-.23.9-.48,1.35-.24.45-.58.87-1.02,1.27-.45.39-1.03.7-1.75.94-.71.24-1.59.35-2.65.35h-6.6v-.06l1.25-.62v-15.96l-1.25-.62v-.06h6.58c.53,0,1.07.05,1.62.15.57.08,1.09.25,1.56.5.47.24.85.58,1.15,1.04.29.45.44,1.03.44,1.75,0,.54-.12,1.05-.35,1.52-.24.47-.55.89-.94,1.25-.39.35-.83.62-1.33.83-.49.2-.99.29-1.5.29,1.19,0,2.19.21,3,.62.8.42,1.4.99,1.79,1.73.4.74.6,1.59.6,2.56,0,.33-.04.72-.12,1.17ZM136.85,180.36c.14.66.35,1.24.65,1.77.29.53.66.95,1.1,1.27.46.32,1.01.48,1.65.48.47,0,.92-.11,1.33-.35.43-.23.81-.55,1.15-.94.34-.39.64-.8.88-1.23.25-.44.44-.86.58-1.27h.08v2.29c-.41.7-.97,1.18-1.71,1.46-.72.26-1.52.4-2.4.4-.71,0-1.37-.16-1.98-.46-.6-.3-1.12-.73-1.56-1.27-.45-.55-.79-1.18-1.04-1.88-.24-.71-.35-1.46-.35-2.27,0-1.33.24-2.44.73-3.33.5-.89,1.15-1.55,1.94-2,.8-.44,1.67-.67,2.58-.67.76,0,1.44.17,2.02.5.59.32,1.06.79,1.4,1.4.34.6.52,1.3.52,2.1,0,.53-.12.94-.38,1.23-.25.28-.58.47-1,.58-.41.1-.85.15-1.33.15h-5.04c0,.7.06,1.38.19,2.04ZM154.34,176.19h-.08c-.14-.48-.32-.94-.54-1.38-.22-.43-.46-.86-.71-1.29-.61-.42-1.21-.62-1.79-.62s-1.14.2-1.6.58c-.47.38-.85.88-1.12,1.5-.27.61-.4,1.28-.4,2v6.21l1.25.62v.06h-3.88v-.06l1.25-.62v-9.33h-1.19v-.15l2.48-1.35h.08v2.96c.14-.54.35-1.03.65-1.48.3-.44.69-.8,1.17-1.06.48-.28,1.05-.42,1.71-.42.58,0,1.09.08,1.52.25.43.17.83.42,1.21.75v2.83ZM165.62,188.15c-.31.48-.72.88-1.25,1.19-.52.3-1.09.53-1.73.67-.62.15-1.27.23-1.92.23-.72,0-1.45-.09-2.17-.27-.71-.18-1.36-.45-1.96-.81-.58-.35-1.06-.78-1.42-1.29-.35-.52-.52-1.1-.52-1.77s.13-1.2.4-1.65c.26-.45.61-.81,1.04-1.1.44-.3.93-.55,1.46-.75.53-.21,1.05-.38,1.58-.5.53-.12,1.03-.24,1.5-.35.47-.11.85-.23,1.15-.35-.24.06-.49.1-.75.15-.25.04-.52.06-.79.06-.97,0-1.85-.17-2.62-.5-.78-.34-1.39-.84-1.83-1.5-.43-.67-.65-1.48-.65-2.46,0-.8.14-1.48.42-2.04.29-.57.69-1.03,1.19-1.38.5-.34,1.07-.6,1.71-.77.64-.17,1.32-.25,2.04-.25h4.98v.77l-3.19-.42c1,.31,1.76.8,2.27,1.48.53.68.79,1.55.79,2.6,0,.75-.14,1.4-.4,1.94-.27.54-.62,1.01-1.06,1.4-.43.38-.93.7-1.48.98-.54.27-1.11.51-1.71.73-.58.21-1.16.43-1.71.67-.54.22-1.04.48-1.48.77-.43.28-.78.61-1.04,1-.25.4-.38.89-.38,1.46,0,.61.13,1.15.4,1.6.28.47.64.86,1.08,1.19.46.33.96.58,1.5.75.55.17,1.12.25,1.71.25.67,0,1.3-.12,1.9-.38.59-.25,1.07-.64,1.44-1.17.38-.52.56-1.17.56-1.96,0-.83-.26-1.51-.77-2.02s-1.25-.75-2.25-.75c-.61,0-1.14.14-1.58.42-.45.28-.67.64-.67,1.08,0,.25.01.42.04.52.03.11.04.25.04.42,0,.25-.12.38-.38.38-.16,0-.27-.07-.33-.21-.07-.12-.1-.27-.1-.44,0-.74.29-1.35.88-1.83.58-.48,1.45-.73,2.6-.73.73,0,1.4.15,1.98.44.59.28,1.07.66,1.42,1.15.34.48.52,1.03.52,1.62,0,.68-.16,1.26-.46,1.75ZM175.35,182.15c-.27.43-.62.81-1.08,1.12-.45.31-.94.54-1.48.71-.53.17-1.06.25-1.6.25-.89,0-1.71-.14-2.46-.4-.74-.28-1.35-.58-1.83-.92v-3.1h.06c.09.85.35,1.58.77,2.19.42.6.92,1.06,1.52,1.4.61.32,1.26.48,1.94.48.51,0,1.02-.11,1.52-.33.5-.22.91-.53,1.23-.92.32-.4.48-.86.48-1.38,0-.54-.14-.96-.42-1.27-.28-.3-.65-.53-1.1-.67-.45-.15-.94-.27-1.48-.35-.54-.09-1.09-.19-1.65-.29-.54-.11-1.04-.27-1.5-.48-.45-.21-.81-.51-1.08-.9-.28-.39-.42-.92-.42-1.6,0-.57.13-1.06.4-1.48.26-.42.61-.76,1.04-1.04.43-.28.92-.48,1.46-.6.55-.14,1.11-.21,1.69-.21.5,0,.99.05,1.48.15.5.1.96.22,1.4.38.44.14.8.29,1.08.46v2.85h-.06c0-.28-.06-.58-.17-.92-.11-.34-.25-.67-.42-.98-.16-.3-.3-.53-.44-.69-.43-.3-.88-.53-1.33-.69-.45-.15-.96-.23-1.54-.23-.62,0-1.2.1-1.73.29-.52.18-.93.46-1.25.83-.32.36-.48.83-.48,1.4s.14.98.42,1.27c.28.29.65.52,1.1.67.47.14.98.24,1.52.31.55.07,1.11.16,1.67.25.55.08,1.07.23,1.54.44.47.2.85.49,1.15.9.29.39.44.93.46,1.6.01.56-.12,1.06-.4,1.5ZM180.67,183.88h-3.88v-.06l1.25-.62v-15.96l-1.25-.62v-.06h2.62v16.65l1.25.62v.06ZM191.82,183.88h-2.52v-2.21c-.2.45-.47.86-.83,1.25-.36.39-.79.71-1.29.96-.5.23-1.07.35-1.71.35s-1.25-.12-1.83-.38c-.57-.26-1.04-.62-1.4-1.08-.36-.47-.54-1.03-.54-1.69,0-.93.31-1.65.94-2.15.64-.51,1.5-.77,2.58-.77h4.08v-2.4c0-.5-.08-.98-.23-1.46-.14-.47-.4-.86-.77-1.17-.36-.3-.89-.46-1.56-.46-.43,0-.88.07-1.33.21-.45.12-.95.33-1.52.6-.25.43-.49.86-.73,1.29-.22.43-.4.9-.52,1.4h-.06v-2.85c.3-.15.67-.3,1.1-.44.43-.15.89-.28,1.38-.38.5-.11.99-.17,1.48-.17.79,0,1.48.14,2.08.42.61.28,1.09.69,1.44,1.23.34.53.52,1.19.52,1.98v7.21l1.25.62v.06ZM203.3,188.15c-.31.48-.72.88-1.25,1.19-.52.3-1.09.53-1.73.67-.62.15-1.27.23-1.92.23-.72,0-1.45-.09-2.17-.27-.71-.18-1.36-.45-1.96-.81-.58-.35-1.06-.78-1.42-1.29-.35-.52-.52-1.1-.52-1.77s.13-1.2.4-1.65c.26-.45.61-.81,1.04-1.1.44-.3.93-.55,1.46-.75.53-.21,1.05-.38,1.58-.5.53-.12,1.03-.24,1.5-.35.47-.11.85-.23,1.15-.35-.24.06-.49.1-.75.15-.25.04-.52.06-.79.06-.97,0-1.85-.17-2.62-.5-.78-.34-1.39-.84-1.83-1.5-.43-.67-.65-1.48-.65-2.46,0-.8.14-1.48.42-2.04.29-.57.69-1.03,1.19-1.38.5-.34,1.07-.6,1.71-.77.64-.17,1.32-.25,2.04-.25h4.98v.77l-3.19-.42c1,.31,1.76.8,2.27,1.48.53.68.79,1.55.79,2.6,0,.75-.14,1.4-.4,1.94-.27.54-.62,1.01-1.06,1.4-.43.38-.93.7-1.48.98-.54.27-1.11.51-1.71.73-.58.21-1.16.43-1.71.67-.54.22-1.04.48-1.48.77-.43.28-.78.61-1.04,1-.25.4-.38.89-.38,1.46,0,.61.13,1.15.4,1.6.28.47.64.86,1.08,1.19.46.33.96.58,1.5.75.55.17,1.12.25,1.71.25.67,0,1.3-.12,1.9-.38.59-.25,1.07-.64,1.44-1.17.38-.52.56-1.17.56-1.96,0-.83-.26-1.51-.77-2.02-.5-.5-1.25-.75-2.25-.75-.61,0-1.14.14-1.58.42-.45.28-.67.64-.67,1.08,0,.25.01.42.04.52.03.11.04.25.04.42,0,.25-.12.38-.38.38-.16,0-.27-.07-.33-.21-.07-.12-.1-.27-.1-.44,0-.74.29-1.35.88-1.83s1.45-.73,2.6-.73c.73,0,1.4.15,1.98.44.59.28,1.07.66,1.42,1.15.34.48.52,1.03.52,1.62,0,.68-.16,1.26-.46,1.75ZM206.06,180.36c.14.66.35,1.24.65,1.77.29.53.66.95,1.1,1.27.46.32,1.01.48,1.65.48.47,0,.92-.11,1.33-.35.43-.23.81-.55,1.15-.94.34-.39.64-.8.88-1.23.25-.44.44-.86.58-1.27h.08v2.29c-.41.7-.97,1.18-1.71,1.46-.72.26-1.52.4-2.4.4-.71,0-1.37-.16-1.98-.46-.6-.3-1.12-.73-1.56-1.27-.45-.55-.79-1.18-1.04-1.88-.24-.71-.35-1.46-.35-2.27,0-1.33.24-2.44.73-3.33.5-.89,1.15-1.55,1.94-2,.8-.44,1.67-.67,2.58-.67.76,0,1.44.17,2.02.5.59.32,1.06.79,1.4,1.4.34.6.52,1.3.52,2.1,0,.53-.12.94-.38,1.23-.25.28-.58.47-1,.58-.41.1-.85.15-1.33.15h-5.04c0,.7.06,1.38.19,2.04ZM226,183.88h-3.9v-.06l1.25-.62v-7.42c0-.29-.03-.59-.08-.92-.06-.33-.16-.64-.31-.92-.16-.29-.39-.52-.71-.69-.32-.18-.74-.27-1.27-.27-.6,0-1.11.11-1.54.33-.43.21-.79.49-1.06.83-.27.33-.48.69-.65,1.06s-.29.72-.35,1.04c-.06.31-.08.54-.08.71v6.23l1.25.62v.06h-3.88v-.06l1.25-.62v-9.33h-1.19v-.15l2.48-1.35h.08v3.19c.03-.09.09-.26.19-.5.11-.25.26-.53.46-.83.21-.3.47-.59.79-.88.33-.29.74-.53,1.23-.71.5-.18,1.09-.27,1.77-.27.19,0,.46.04.79.12.33.07.67.22,1,.44.34.22.64.57.88,1.04.23.46.35,1.06.35,1.81v7.42l1.25.62v.06ZM235.61,182.15c-.27.43-.62.81-1.08,1.12-.45.31-.94.54-1.48.71-.53.17-1.06.25-1.6.25-.89,0-1.71-.14-2.46-.4-.74-.28-1.35-.58-1.83-.92v-3.1h.06c.09.85.35,1.58.77,2.19.42.6.92,1.06,1.52,1.4.61.32,1.26.48,1.94.48.51,0,1.02-.11,1.52-.33.5-.22.91-.53,1.23-.92.32-.4.48-.86.48-1.38,0-.54-.14-.96-.42-1.27-.28-.3-.65-.53-1.1-.67-.45-.15-.94-.27-1.48-.35-.54-.09-1.09-.19-1.65-.29-.54-.11-1.04-.27-1.5-.48-.45-.21-.81-.51-1.08-.9-.28-.39-.42-.92-.42-1.6,0-.57.13-1.06.4-1.48.26-.42.61-.76,1.04-1.04.43-.28.92-.48,1.46-.6.55-.14,1.11-.21,1.69-.21.5,0,.99.05,1.48.15.5.1.96.22,1.4.38.44.14.8.29,1.08.46v2.85h-.06c0-.28-.06-.58-.17-.92-.11-.34-.25-.67-.42-.98-.16-.3-.3-.53-.44-.69-.43-.3-.88-.53-1.33-.69-.45-.15-.96-.23-1.54-.23-.62,0-1.2.1-1.73.29-.52.18-.93.46-1.25.83-.32.36-.48.83-.48,1.4s.14.98.42,1.27c.28.29.65.52,1.1.67.47.14.98.24,1.52.31.55.07,1.11.16,1.67.25.55.08,1.07.23,1.54.44.47.2.85.49,1.15.9.29.39.44.93.46,1.6.01.56-.12,1.06-.4,1.5ZM236.78,148.62c-1.08.62-2.39.82-3.6.55-.06,1.01-.02,2.08-.04,3.06,0,.19-.04.78-.04.97l-.65-.32c-.22-.13-.45-.25-.7-.36-1.23-.55-2.58-.89-3.93-.92-.55-.01-1.09.04-1.62.18-.04.01-.08-.02-.09-.06-.01-.04.01-.08.05-.1,1.06-.42,2.23-.49,3.36-.4.92.08,1.83.24,2.71.55.03-.95.02-1.92.11-2.86-.54-.2-1.05-.46-1.59-.64-.92-.31-1.89-.36-2.86-.27-.85.07-1.71.25-2.55.43-.56.12-1.11.24-1.64.44-.44.17-.82.4-1.24.6.23,1.18.44,2.36.56,3.56.59-.16,1.19-.26,1.8-.33,2.11-.22,5.2-.24,7.12.73.04.02.06.07.04.11-.02.04-.06.05-.1.04-1.93-.76-4.92-.47-6.94-.07-.73.16-1.49.36-2.17.68l-.69.33c.01-.58,0-1.28-.05-1.86-.07-.97-.18-1.94-.31-2.91-.19.05-.39.08-.59.09-.77.1-1.53-.24-2.1-.73-.94-.8-1.81-2.22-2.03-3.45-.22-1.23.24-2.55,1.18-3.32.55-.46,1.24-.72,1.92-.87.96-.22,1.97-.28,2.9-.56.62-.18,1.17-.55,1.77-.84.09-.04.15.09.07.14-.55.37-1.09.81-1.72,1.06-1.35.57-2.91.55-4.15,1.33-.98.61-1.47,1.9-1.19,3.04.31,1.34,1.77,3.57,3.27,3.35.68-.02,1.3-.46,1.92-.76.23-.11.48-.21.72-.3h0c-.7-.23-1.27-.67-1.69-1.36-.21-.33-.37-.68-.51-1.03-.03-.08.07-.15.13-.09.49.51.94,1.1,1.53,1.46,1.08.62,2.7.76,3.78.04.42-.28.77-.68.99-1.15.07-.16.12-.33.17-.51.01-.04.05-.07.09-.06.04.01.06.04.06.08.03.62-.23,1.25-.62,1.72-.02.03-.05.05-.07.08.35-.04.71-.07,1.07-.07.03-.01.05-.03.08-.04.85-.41,1.58-1.14,1.91-2.06.12-.33.21-.7.16-1.06-.02-.09.11-.14.15-.05.17.38.15.82.06,1.22-.16.77-.67,1.54-1.32,2.03.31.04.62.09.94.17.13.04.26.07.38.11.32-.14.65-.24.96-.41.45-.23.84-.56,1.05-1.05.03-.08.15-.06.15.03-.02.83-.72,1.42-1.43,1.7.95.4,1.84.84,2.97.72.59-.05,1.19-.22,1.71-.52.88-.47,1.37-1.43,1.47-2.44.03-.33.06-.68.01-1.02-.11-.71-.54-1.36-1.12-1.77-.84-.57-2.01-.64-2.95-.21-.11.05-.21.1-.31.17-.15.09-.3.2-.43.33-.19.19-.34.43-.41.71-.02.04-.06.07-.1.06-.04-.01-.06-.04-.06-.07,0-.33.11-.66.29-.93.15-.21.33-.4.53-.56-.06-.14-.12-.27-.2-.4-.79-1.4-2.34-2.09-3.85-2.17-1.22-.13-2.48.97-3.54,1.62-.91.59-1.9,1.19-2.98,1.38-.36.06-.73.08-1.1.03-.04,0-.07-.04-.07-.08s.04-.07.07-.07c2.16-.23,3.65-2.07,5.44-3.15.69-.42,1.44-.73,2.27-.64.29.02.58.06.86.12,1.44.3,2.83,1.28,3.36,2.73.05.12.08.24.11.37.77-.44,1.73-.53,2.57-.3,1.31.36,2.34,1.62,2.43,3.03.09,1.6-.47,3.24-1.89,4.04ZM242.88,99.22c-.33.24-.7.45-1.08.62-3.11,1.11-4.7.45-4.75-1.98-1.27,1.1-2.11,1.77-2.54,2-1.03.61-2.15.89-3.35.83-.88-.05-1.47-.32-1.79-.81-.32-.48-.29-1.15.08-1.98.35-.8.8-1.54,1.32-2.24-.11.04-.23.08-.34.11-.89.29-1.79.6-2.71.94-.7.2-1.24.62-1.62,1.27-.64,1.03-1.44,1.83-2.4,2.42-.96.57-1.94.98-2.94,1.23-.99.24-1.86.39-2.62.44-.75.06-1.23.07-1.46.04h-.1c-.3.2-.61.58-.92,1.17-.32.57-.59,1.08-.83,1.54-.05.11-.09.22-.12.31-1.29,2.57-2.57,5.15-3.83,7.73-.71,1.43-1.42,2.86-2.15,4.29-.23.51-.51,1-.81,1.46-.29.38-.65.45-1.08.23-.28-.21-.34-.49-.21-.85.14-.39.29-.77.46-1.15,2.25-5.29,4.64-10.54,7.15-15.73.78-1.59,1.52-3.23,2.21-4.9.31-.76.63-1.55.98-2.35.01-.08.05-.17.12-.27.17-.42.36-.83.6-1.25.11-.14.3-.22.58-.25.29-.04.54,0,.75.1.26.17.4.43.4.77,0,.17-.04.34-.1.52-.06.14-.09.29-.1.44-.02.14.03.28.15.42.21.03.39,0,.54-.08.15-.08.3-.19.46-.31.14-.11.3-.19.5-.25.11-.07.23-.12.35-.17.62-.29,1.24-.54,1.85-.75.79-.25,1.57-.19,2.35.19.34.21.6.47.77.77.17.29.3.6.4.94.08.27.32.41.71.42.39.02.82-.03,1.29-.15.47-.11.9-.23,1.29-.35.33-.08.57-.14.71-.17.3-.07.6-.09.91-.09,1.22-1.13,2.58-2.03,4.07-2.7.8-.4,1.65-.56,2.54-.48.89.06,1.42.56,1.6,1.5.07.29-.01.55-.23.77-.28.27-.6.32-.98.17h-.12s-.08-.03-.1-.06c-.38-.53-.76-.75-1.15-.67-.38.08-.78.26-1.21.52-2,1.18-3.49,2.81-4.48,4.9-.06.1-.09.2-.1.31,0,.11.03.2.1.27.23.07.49.05.77-.06.29-.11.58-.27.88-.48.29-.22.53-.4.73-.54.03-.04.04-.06.04-.06.94-.79,1.88-1.6,2.79-2.44.4-.43.9-.67,1.5-.73.86,0,1.21.39,1.06,1.17-.07.28-.16.56-.25.85-.33,1.24-.35,1.97-.04,2.19.32.21.8.21,1.44,0,.65-.22,1.3-.63,1.94-1.23.64-.61,1.18-1.17,1.62-1.67.44-.5.82-.66,1.12-.48.3.17.32.59.06,1.27-.38.49-.78.95-1.21,1.38-.43.43-.9.82-1.4,1.17-.04,0-.06.01-.06.02ZM255.06,170.21h-.21c0-.43-.1-.86-.29-1.29-.18-.43-.44-.82-.77-1.19-.33-.36-.72-.65-1.15-.85-.43-.22-.89-.33-1.35-.33-1.03,0-1.93.25-2.71.75-.77.49-1.41,1.15-1.94,1.98-.52.82-.91,1.74-1.17,2.77-.27,1.03-.4,2.08-.4,3.17s.13,2.14.4,3.17c.26,1.03.65,1.96,1.17,2.79.53.82,1.17,1.48,1.94,1.98.78.49,1.68.73,2.71.73.47,0,.92-.1,1.35-.31.43-.22.81-.51,1.15-.88.33-.36.59-.76.77-1.19.19-.44.29-.88.29-1.29h.21v2.58c-.54.46-1.11.81-1.71,1.06-.6.25-1.29.38-2.08.38-1.27,0-2.37-.24-3.31-.73-.95-.5-1.74-1.17-2.4-2.02-.64-.84-1.12-1.8-1.44-2.88-.32-1.08-.48-2.21-.48-3.4s.16-2.3.48-3.38c.32-1.08.8-2.05,1.44-2.9.65-.84,1.45-1.51,2.4-2,.94-.5,2.05-.75,3.31-.75.79,0,1.48.12,2.08.38.59.25,1.17.6,1.71,1.06v2.58ZM266.56,183.88h-2.52v-2.21c-.2.45-.47.86-.83,1.25-.36.39-.79.71-1.29.96-.5.23-1.07.35-1.71.35s-1.25-.12-1.83-.38c-.57-.26-1.04-.62-1.4-1.08-.36-.47-.54-1.03-.54-1.69,0-.93.31-1.65.94-2.15.64-.51,1.5-.77,2.58-.77h4.08v-2.4c0-.5-.08-.98-.23-1.46-.14-.47-.4-.86-.77-1.17-.36-.3-.89-.46-1.56-.46-.43,0-.88.07-1.33.21-.45.12-.95.33-1.52.6-.25.43-.49.86-.73,1.29-.22.43-.4.9-.52,1.4h-.06v-2.85c.3-.15.67-.3,1.1-.44.43-.15.89-.28,1.38-.38.5-.11.99-.17,1.48-.17.79,0,1.48.14,2.08.42.61.28,1.09.69,1.44,1.23.34.53.52,1.19.52,1.98v7.21l1.25.62v.06ZM271.73,183.88c-.35.23-.78.35-1.29.35-.56,0-.97-.2-1.25-.6-.27-.4-.4-.96-.4-1.69v-6.73c0-.32-.02-.65-.04-.98-.02-.34-.1-.63-.27-.85-.17-.22-.47-.33-.9-.33h-1.21v-.35h1.04c.4,0,.72-.1.96-.31.23-.21.41-.48.52-.83.11-.34.17-.7.17-1.06,0-.51-.12-.96-.35-1.35-.22-.39-.59-.58-1.1-.58-.35,0-.62.1-.81.31-.18.21-.27.45-.27.71,0,.1.03.2.08.31.07.1.16.15.27.15.14,0,.21.06.21.17,0,.08-.06.12-.17.12-.18,0-.35-.08-.5-.25-.14-.18-.21-.42-.21-.73,0-.48.19-.89.56-1.21.38-.32.84-.48,1.42-.48s1.1.21,1.52.62c.42.42.62.99.62,1.73,0,.49-.1.91-.29,1.25-.2.35-.45.64-.75.88-.29.22-.59.41-.9.56h3.73v.81c-.62-.17-1.23-.28-1.81-.35-.58-.07-1.18-.1-1.77-.1.51.11.92.37,1.21.77.29.41.44,1,.44,1.79v6.46c0,.22.01.47.04.75.04.27.11.49.21.67.11.17.28.25.52.25.33,0,.62-.09.88-.27.26-.18.44-.36.54-.56h.33c-.31.41-.64.73-.98.98ZM274.73,180.36c.14.66.35,1.24.65,1.77.29.53.66.95,1.1,1.27.46.32,1.01.48,1.65.48.47,0,.92-.11,1.33-.35.43-.23.81-.55,1.15-.94.34-.39.64-.8.88-1.23.25-.44.44-.86.58-1.27h.08v2.29c-.41.7-.97,1.18-1.71,1.46-.72.26-1.52.4-2.4.4-.71,0-1.37-.16-1.98-.46-.6-.3-1.12-.73-1.56-1.27-.45-.55-.79-1.18-1.04-1.88-.24-.71-.35-1.46-.35-2.27,0-1.33.24-2.44.73-3.33.5-.89,1.15-1.55,1.94-2,.8-.44,1.67-.67,2.58-.67.76,0,1.44.17,2.02.5.59.32,1.06.79,1.4,1.4.34.6.52,1.3.52,2.1,0,.53-.12.94-.38,1.23-.25.28-.58.47-1,.58-.41.1-.85.15-1.33.15h-5.04c0,.7.06,1.38.19,2.04ZM292.22,176.19h-.08c-.14-.48-.32-.94-.54-1.38-.22-.43-.46-.86-.71-1.29-.61-.42-1.21-.62-1.79-.62s-1.14.2-1.6.58c-.47.38-.85.88-1.12,1.5-.27.61-.4,1.28-.4,2v6.21l1.25.62v.06h-3.88v-.06l1.25-.62v-9.33h-1.19v-.15l2.48-1.35h.08v2.96c.14-.54.35-1.03.65-1.48.3-.44.69-.8,1.17-1.06.48-.28,1.05-.42,1.71-.42.58,0,1.09.08,1.52.25.43.17.83.42,1.21.75v2.83ZM297.13,183.88h-3.88v-.06l1.25-.62v-9.33h-1.19v-.15l2.48-1.35h.08v10.83l1.25.62v.06ZM294.23,169.92c0-.26.09-.48.27-.67.19-.19.42-.29.69-.29s.48.1.67.29c.19.18.29.41.29.67s-.1.49-.29.69c-.18.18-.41.27-.67.27s-.49-.09-.69-.27c-.18-.19-.27-.42-.27-.69ZM309.16,183.88h-3.9v-.06l1.25-.62v-7.42c0-.29-.03-.59-.08-.92-.06-.33-.16-.64-.31-.92-.16-.29-.39-.52-.71-.69-.32-.18-.74-.27-1.27-.27-.6,0-1.11.11-1.54.33-.43.21-.79.49-1.06.83-.27.33-.48.69-.65,1.06-.17.38-.29.72-.35,1.04-.06.31-.08.54-.08.71v6.23l1.25.62v.06h-3.88v-.06l1.25-.62v-9.33h-1.19v-.15l2.48-1.35h.08v3.19c.03-.09.09-.26.19-.5.11-.25.26-.53.46-.83.21-.3.47-.59.79-.88.33-.29.74-.53,1.23-.71.5-.18,1.09-.27,1.77-.27.19,0,.46.04.79.12.33.07.67.22,1,.44.34.22.64.57.88,1.04.23.46.35,1.06.35,1.81v7.42l1.25.62v.06ZM320.62,188.15c-.31.48-.72.88-1.25,1.19-.52.3-1.09.53-1.73.67-.62.15-1.27.23-1.92.23-.72,0-1.45-.09-2.17-.27-.71-.18-1.36-.45-1.96-.81-.58-.35-1.06-.78-1.42-1.29-.35-.52-.52-1.1-.52-1.77s.13-1.2.4-1.65c.26-.45.61-.81,1.04-1.1.44-.3.93-.55,1.46-.75.53-.21,1.05-.38,1.58-.5.53-.12,1.03-.24,1.5-.35.47-.11.85-.23,1.15-.35-.24.06-.49.1-.75.15-.25.04-.52.06-.79.06-.97,0-1.85-.17-2.62-.5-.78-.34-1.39-.84-1.83-1.5-.43-.67-.65-1.48-.65-2.46,0-.8.14-1.48.42-2.04.29-.57.69-1.03,1.19-1.38.5-.34,1.07-.6,1.71-.77.64-.17,1.32-.25,2.04-.25h4.98v.77l-3.19-.42c1,.31,1.76.8,2.27,1.48.53.68.79,1.55.79,2.6,0,.75-.14,1.4-.4,1.94-.27.54-.62,1.01-1.06,1.4-.43.38-.93.7-1.48.98-.54.27-1.11.51-1.71.73-.58.21-1.16.43-1.71.67-.54.22-1.04.48-1.48.77-.43.28-.78.61-1.04,1-.25.4-.38.89-.38,1.46,0,.61.13,1.15.4,1.6.28.47.64.86,1.08,1.19.46.33.96.58,1.5.75.55.17,1.12.25,1.71.25.67,0,1.3-.12,1.9-.38.59-.25,1.07-.64,1.44-1.17.38-.52.56-1.17.56-1.96,0-.83-.26-1.51-.77-2.02-.5-.5-1.25-.75-2.25-.75-.61,0-1.14.14-1.58.42-.45.28-.67.64-.67,1.08,0,.25.01.42.04.52.03.11.04.25.04.42,0,.25-.12.38-.38.38-.16,0-.27-.07-.33-.21-.07-.12-.1-.27-.1-.44,0-.74.29-1.35.88-1.83s1.45-.73,2.6-.73c.73,0,1.4.15,1.98.44.59.28,1.07.66,1.42,1.15.34.48.52,1.03.52,1.62,0,.68-.16,1.26-.46,1.75ZM243.68,147.72v-.86l52.84-.57-52.84-.57v-.87l133.46,1.44-133.46,1.43Z"/>
  </g>
</svg>