<?xml version="1.0" encoding="UTF-8"?>
<svg id="Layer_2" data-name="Layer 2" xmlns="http://www.w3.org/2000/svg" viewBox="0 0 437.14 437.14">
  <defs>
    <style>
      .cls-1 {
        fill: #fff;
      }
    </style>
  </defs>
  <g id="Layer_4" data-name="Layer 4">
    <g>
      <path class="cls-1" d="M218.57,160.2c-29.46,0-53.02,23.33-53.02,51.7s23.57,51.7,53.02,51.7,53.02-23.33,53.02-51.7-23.57-51.7-53.02-51.7Z"/>
      <path class="cls-1" d="M218.57,0C97.86,0,0,97.86,0,218.57s97.86,218.57,218.57,218.57,218.57-97.86,218.57-218.57S339.28,0,218.57,0ZM284.92,324.31c-68.86,34.31-52.4,56.36-66.35,56.36s2.55-22.03-66.24-56.3c-3.77-1.88-7.43-3.98-10.95-6.28-34.23-22.27-55.37-63-55.37-106.84,0-72.11,59.34-130.58,132.56-130.58s132.56,58.47,132.56,130.56c0,48.31-25.73,92.89-66.21,113.08Z"/>
    </g>
  </g>
</svg>