<?xml version="1.0" encoding="UTF-8"?>
<svg id="Layer_2" data-name="Layer 2" xmlns="http://www.w3.org/2000/svg" viewBox="0 0 437 437">
  <defs>
    <style>
      .cls-1 {
        fill: #fff;
      }
    </style>
  </defs>
  <g id="Layer_2-2" data-name="Layer 2">
    <path class="cls-1" d="M218.5,0C97.83,0,0,97.83,0,218.5s97.83,218.5,218.5,218.5,218.5-97.83,218.5-218.5S339.17,0,218.5,0ZM358.86,324.88l-23.68,23.54c-6.02,5.99-13.49,10.36-22.08,11.16-27.16,2.53-93.57-.27-164.35-70.64-66.74-66.36-78.71-123.25-80.21-149.68-.59-10.33,4.26-19.65,11.48-26.83l26.16-26.01c14.58-14.49,39.15-12.25,51.86,4.74l21.02,28.07c10.27,13.72,9.16,32.52-2.61,44.23l-4.78,4.75s-18.04,17.94,31.21,66.91c49.25,48.97,67.29,31.03,67.29,31.03l7.59-7.55c10.49-10.43,26.85-12.58,40.28-5.28l31.84,17.31c20.45,11.11,24.95,38.36,8.97,54.25Z"/>
  </g>
</svg>